<svg width="526" height="96" viewBox="0 0 526 96" fill="none" xmlns="http://www.w3.org/2000/svg">
<path d="M70.375 93.0625H62.0625V50.6875H8.9375V93.0625H0.625V0.375H8.9375V42.8125H62.0625V0.375H70.375V93.0625ZM147.095 89.375L141.158 94.9375L126.533 81.125L112.845 93.9375H94.22L76.345 77.25V45.125L94.22 28.3125H112.845L130.72 45.125V74.0625L147.095 89.375ZM122.408 74.0625V48.3125L109.595 36.25H97.47L84.6575 48.3125V74.0625L97.47 86.125H109.595L122.408 74.0625ZM222.815 46L216.94 51.75L200.565 36.25H188.565L160.378 62.8125V93.0625H152.065V29.3125H160.378V51.75L185.315 28.3125H203.94L222.815 46ZM299.285 75.6875L279.723 93.9375H228.785V86.125H276.348L287.535 75.625L276.348 65.125H245.66L226.098 46.75L245.66 28.3125H296.473V36.25H248.973L237.785 46.75L248.973 57.25H279.723L299.285 75.6875ZM373.255 93.0625H364.943V48.3125L352.068 36.25H340.005L311.818 62.8125V93.0625H303.505V0.375H311.818V51.75L336.755 28.3125H355.38L373.255 45.125V93.0625ZM418.225 20.8125H409.913V0.375H418.225V20.8125ZM418.225 93.0625H409.913V29.3125H418.225V93.0625ZM525.695 76.375L505.133 95.5L485.633 77.25V36.25H455.945V28.3125H485.633V0.375H493.945V28.3125H523.633V36.25H493.945V74.0625L505.133 84.5625L519.758 70.75L525.695 76.375Z" fill="white"/>
</svg>
